<?xml version="1.0" encoding="utf-8"?>
<!-- Generator: Adobe Illustrator 16.0.0, SVG Export Plug-In . SVG Version: 6.00 Build 0)  -->
<!DOCTYPE svg PUBLIC "-//W3C//DTD SVG 1.1//EN" "http://www.w3.org/Graphics/SVG/1.1/DTD/svg11.dtd">
<svg version="1.1" id="Layer_1" xmlns="http://www.w3.org/2000/svg" xmlns:xlink="http://www.w3.org/1999/xlink" x="0px" y="0px"
	 width="130.182px" height="128.166px" viewBox="0 0 130.182 128.166" enable-background="new 0 0 130.182 128.166"
	 xml:space="preserve">
<g>
	<g>
		<path fill="#EFE70B" d="M79-6.084c8.667,0,17.333,0,26,0c2.821,4.856,1.706,9.519-3.737,13.242
			c-6.009,4.111-12.201,7.931-18.403,11.708c-9.959,6.064-19.642,12.625-29.681,18.541c-0.854,0.503-1.822,0.915-2.063,2.498
			c12.948,2.93,25.56,7.327,38.53,10.224c2.61,0.583,5.244,1.048,7.693,2.163c4.538,2.065,7.915,5.319,8.526,10.837
			c0.609,5.51-1.755,9.766-5.929,12.595c-6.161,4.18-12.376,8.288-19.066,11.524c-7.392,3.574-14.083,8.446-22.18,13.292
			c8.752,2.876,16.455,4.838,24.096,7.001c5.301,1.502,10.688,2.701,15.854,4.678c7.646,2.926,10.529,11.162,6.359,17.694
			c-10,0-20,0-30,0c-16.233-1.985-31.808-7.012-47.472-11.627c-3.449-1.017-6.553-2.635-8.861-5.618
			c-4.739-6.117-3.146-14.617,3.967-18.946c10.977-6.679,21.817-13.602,32.783-20.296c2.014-1.229,4.023-2.454,6.354-4.188
			c-4.174-1.521-8.063-2.864-12.036-3.57c-10.533-1.876-20.6-5.691-31.001-8.085c-1.146-0.264-2.234-0.723-3.312-1.183
			c-4.673-1.993-7.826-5.396-8.308-10.931c-0.463-5.313,1.896-9.222,5.951-12.028c7.257-5.019,14.87-9.406,22.321-14.079
			c11.181-7.011,22.37-14.005,33.5-21.099C72.096-3.783,75.724-4.401,79-6.084z"/>
		<path fill="none" d="M105,129.914c-0.333-4.264,1.054-8.764-2.246-12.561c-3.43-3.948-8.231-4.089-12.51-5.383
			c-11.979-3.632-24.097-6.753-37.559-10.459c9.698-5.871,18.034-11.496,26.853-16.07c6.775-3.516,13.089-7.805,19.625-11.699
			c4.002-2.384,5.94-6.834,4.69-11.794c-1.277-5.07-5.228-7.596-9.771-8.469c-15.549-2.992-30.429-8.907-46.007-11.713
			c-1.018-0.184-2.241-0.151-2.508-1.263c-0.395-1.648,1.211-1.692,2.128-2.264C65.152,27.359,82.592,16.452,100.06,5.596
			c4.313-2.68,5.403-6.78,4.938-11.681c7.5,0,15.002,0.11,22.499-0.07c2.154-0.053,2.566,0.446,2.563,2.726
			c-0.083,43.562-0.083,87.123,0,130.685c0.004,2.279-0.407,2.777-2.563,2.727C120.002,129.802,112.5,129.914,105,129.914z"/>
		<path fill="none" d="M79-6.084C73.118-0.511,65.871,2.747,59.209,6.981c-15.117,9.613-30.397,18.931-45.537,28.506
			c-3.522,2.228-5.188,5.756-4.681,10.281c0.46,4.095,2.688,7.096,6.112,8.138c10.786,3.284,21.692,6.122,32.57,9.055
			c6.259,1.686,12.553,3.221,19.768,5.067c-7.406,5.861-14.821,9.637-21.813,14.109c-7.412,4.744-14.975,9.226-22.517,13.737
			c-4.118,2.46-5.807,6.231-5.037,10.988c0.903,5.588,5.059,7.875,9.65,9.201c15.669,4.523,31.37,8.92,47.056,13.387
			c0.104,0.029,0.146,0.303,0.218,0.465c-23.458,0-46.917-0.04-70.374,0.056c-2.612,0.011-3.752-0.063-3.737-3.628
			c0.174-42.956,0.175-85.907,0-128.862C0.872-6.106,2.04-6.146,4.633-6.136C29.422-6.048,54.211-6.084,79-6.084z"/>
		<path fill="#EFE70B" d="M93.042,33.249c-0.05,3.35-1.327,5.229-4.418,5.277c-3.009,0.047-4.593-1.541-4.614-4.766
			c-0.019-2.927,1.342-4.572,4.119-4.766C91.13,28.785,92.718,30.351,93.042,33.249z"/>
		<path fill="#EFE70B" d="M90.638,94.793c2.884,0.233,4.447,1.813,4.353,5.039c-0.089,2.941-1.534,4.495-4.306,4.565
			c-2.995,0.077-4.626-1.464-4.674-4.699C85.963,96.444,87.613,94.949,90.638,94.793z"/>
		<path fill="#EFE70B" d="M34.052,6.93c-0.117,3.266-1.485,5.058-4.556,5.037c-3.037-0.022-4.523-1.71-4.482-4.905
			c0.037-2.944,1.475-4.508,4.243-4.633C32.28,2.292,33.804,3.921,34.052,6.93z"/>
		<path fill="#EFE70B" d="M30.762,76.843c-3.078-0.121-4.769-1.568-4.751-4.834c0.016-3.228,1.603-4.811,4.611-4.77
			c2.771,0.037,4.245,1.562,4.364,4.502C35.118,74.955,33.588,76.576,30.762,76.843z"/>
	</g>
</g>
</svg>
